<?xml version="1.0" standalone="no"?><!DOCTYPE svg PUBLIC "-//W3C//DTD SVG 1.1//EN" "http://www.w3.org/Graphics/SVG/1.1/DTD/svg11.dtd"><svg width="100%" height="100%" viewBox="0 0 27 2" version="1.1" xmlns="http://www.w3.org/2000/svg" xmlns:xlink="http://www.w3.org/1999/xlink" xml:space="preserve" style="fill-rule:evenodd;clip-rule:evenodd;stroke-linejoin:round;stroke-miterlimit:1.41421;"><g><path d="M23.81,0.644c0,-0.106 -0.086,-0.192 -0.192,-0.192l-23.421,0c-0.106,0 -0.192,0.086 -0.192,0.192l0,0.384c0,0.106 0.086,0.192 0.192,0.192l23.421,0c0.106,0 0.192,-0.086 0.192,-0.192l0,-0.384Z" style="fill:#3fcc52;"/><path d="M25.683,1.562c0.279,0 0.505,-0.163 0.505,-0.363l0,-0.726c0,-0.201 -0.226,-0.363 -0.505,-0.363l-1.585,0l0,1.452l1.585,0Z" style="fill:#e2d528;"/><path d="M24.123,1.562c-0.279,0 -0.505,-0.163 -0.505,-0.363l0,-0.726c0,-0.201 0.226,-0.363 0.505,-0.363l1.585,0l0,1.452l-1.585,0Z" style="fill:#343434;"/></g></svg>